<svg width="64" height="64" viewBox="0 0 64 64" fill="none" xmlns="http://www.w3.org/2000/svg"><path fill-rule="evenodd" clip-rule="evenodd" d="M32 32a8 8 0 1 1 16 0 8 8 0 0 1-16 0z" fill="#1ABCFE"/><path fill-rule="evenodd" clip-rule="evenodd" d="M16 48a8 8 0 0 1 8-8h8v8a8 8 0 1 1-16 0z" fill="#0ACF83"/><path fill-rule="evenodd" clip-rule="evenodd" d="M32 8v16h8a8 8 0 1 0 0-16h-8z" fill="#FF7262"/><path fill-rule="evenodd" clip-rule="evenodd" d="M16 16a8 8 0 0 0 8 8h8V8h-8a8 8 0 0 0-8 8z" fill="#F24E1E"/><path fill-rule="evenodd" clip-rule="evenodd" d="M16 32a8 8 0 0 0 8 8h8V24h-8a8 8 0 0 0-8 8z" fill="#A259FF"/></svg>