<svg width="64" height="64" viewBox="0 0 64 64" fill="none" xmlns="http://www.w3.org/2000/svg"><path d="M32.099 16.881C45.275 6.652 38.511 0 38.511 0c1.007 10.575-10.887 13.072-14.075 20.338-2.176 4.959 1.49 9.3 7.657 14.773-.545-1.212-1.386-2.39-2.237-3.582-2.904-4.067-5.929-8.303 2.242-14.648z" fill="#E76F00"/><path d="M34.202 37.354s3.964-3.198.825-6.752c-10.642-12.058 11.639-17.53 11.639-17.53-13.603 6.553-11.573 10.443-8.154 15.168 3.661 5.067-4.31 9.114-4.31 9.114z" fill="#E76F00"/><path d="M45.874 46.891c12.21-6.24 6.565-12.235 2.624-11.428-.965.198-1.396.37-1.396.37s.358-.553 1.043-.792c7.796-2.695 13.791 7.949-2.516 12.165 0 0 .189-.166.245-.315zM20.466 38.994c-7.64-1.003 4.189-3.766 4.189-3.766s-4.594-.305-10.243 2.38c-6.68 3.178 16.524 4.623 28.536 1.517 1.249-.839 2.975-1.566 2.975-1.566s-4.916.864-9.81 1.27c-5.99.493-12.421.59-15.647.165zM23.373 44.952c-4.26-.434-1.471-2.464-1.471-2.464-11.024 3.598 6.133 7.678 21.538 3.248-1.638-.567-2.679-1.605-2.679-1.605-7.528 1.425-11.88 1.38-17.388.82zM25.229 51.398c-4.257-.481-1.77-1.903-1.77-1.903-10.007 2.75 6.087 8.43 18.827 3.06-2.086-.798-3.58-1.719-3.58-1.719-5.684 1.058-8.32 1.14-13.477.562z" fill="#5382A1"/><path d="M51.877 54.678s1.84 1.49-2.027 2.645c-7.354 2.19-30.608 2.852-37.068.087-2.322-.994 2.033-2.372 3.402-2.662 1.429-.304 2.245-.247 2.245-.247-2.582-1.79-16.692 3.512-7.167 5.03 25.977 4.143 47.353-1.865 40.615-4.853z" fill="#5382A1"/><path d="M56 57.936c-.426 5.453-18.425 6.6-30.145 5.863-7.646-.482-9.179-1.687-9.201-1.705 7.318 1.186 19.656 1.402 29.66-.449C55.18 60.003 56 57.935 56 57.935z" fill="#5382A1"/></svg>