<svg xmlns="http://www.w3.org/2000/svg" width="64" height="64" fill="none" viewBox="0 0 64 64"><path fill="#53C1DE" d="M37.358 31.952c0-2.87-2.399-5.195-5.358-5.195-2.959 0-5.358 2.326-5.358 5.195s2.4 5.195 5.358 5.195c2.96 0 5.358-2.326 5.358-5.195Z"/><path fill="#53C1DE" fill-rule="evenodd" d="M49.4 22.307c1.132-4.457 2.555-12.724-2.46-15.527-4.99-2.79-11.483 2.557-14.912 5.766-3.42-3.177-10.095-8.501-15.105-5.69-4.988 2.8-3.45 10.93-2.293 15.415C9.977 23.553 2 26.313 2 31.951c0 5.624 7.968 8.627 12.594 9.907-1.16 4.51-2.622 12.524 2.373 15.317 5.027 2.811 11.683-2.386 15.144-5.63 3.45 3.228 9.882 8.46 14.873 5.658 5.007-2.81 3.703-10.966 2.547-15.478C54.014 40.442 62 37.505 62 31.952c0-5.585-8.02-8.367-12.6-9.645Zm-.567 17.027c-.76-2.33-1.785-4.81-3.039-7.37 1.197-2.5 2.182-4.946 2.92-7.262 3.358.943 10.723 3.1 10.723 7.25 0 4.188-7.068 6.365-10.604 7.382ZM45.7 55.052c-3.724 2.09-9.256-2.913-11.804-5.29 1.69-1.793 3.38-3.878 5.029-6.192 2.9-.25 5.641-.658 8.126-1.215.814 3.192 2.39 10.598-1.351 12.697Zm-27.453-.03c-3.724-2.082-2.022-9.233-1.168-12.555 2.458.527 5.178.906 8.086 1.135 1.66 2.264 3.398 4.346 5.15 6.17-2.165 2.03-8.326 7.342-12.068 5.25ZM4.563 31.952c0-4.204 7.321-6.345 10.755-7.287.751 2.368 1.736 4.844 2.925 7.347-1.204 2.541-2.203 5.056-2.961 7.452-3.275-.909-10.719-3.306-10.719-7.512ZM18.207 9.007c3.74-2.099 9.542 3.013 12.025 5.313-1.743 1.815-3.466 3.881-5.111 6.133-2.822.253-5.523.66-8.007 1.206-.931-3.618-2.642-10.555 1.093-12.652Zm22.551 14.147c1.915.235 3.75.546 5.471.927a51.999 51.999 0 0 1-1.92 5.01 82.254 82.254 0 0 0-3.55-5.937Zm-8.73-7.058a53.536 53.536 0 0 1 3.532 4.133 77.861 77.861 0 0 0-7.092-.002 55.249 55.249 0 0 1 3.56-4.13ZM19.714 29.09a53.82 53.82 0 0 1-1.907-5.034 59.489 59.489 0 0 1 5.44-.905 72.574 72.574 0 0 0-3.533 5.939Zm3.588 11.843a56.174 56.174 0 0 1-5.53-.863 54.67 54.67 0 0 1 1.945-5.135 72.635 72.635 0 0 0 3.585 5.998Zm8.799 7.051a56.286 56.286 0 0 1-3.61-4.189c2.376.09 4.756.09 7.132-.012a53.2 53.2 0 0 1-3.522 4.201Zm12.233-13.139a51.817 51.817 0 0 1 2.015 5.118c-1.74.385-3.618.695-5.597.925a82.263 82.263 0 0 0 3.583-6.043Zm-6.838 6.344c-3.635.252-7.292.25-10.927.02a69.846 69.846 0 0 1-5.492-9.197 69.794 69.794 0 0 1 5.46-9.18 74.56 74.56 0 0 1 10.938.002 78.277 78.277 0 0 1 5.477 9.143 78.24 78.24 0 0 1-5.456 9.212ZM45.66 8.933c3.74 2.092 2.075 9.521 1.258 12.752-2.49-.557-5.192-.971-8.022-1.229-1.65-2.276-3.357-4.346-5.072-6.137 2.514-2.35 8.131-7.457 11.836-5.386Z" clip-rule="evenodd"/></svg>