<svg width="64" height="64" viewBox="0 0 64 64" fill="none" xmlns="http://www.w3.org/2000/svg"><path d="M44.271 50.543c-6.601 3.797-15.678 4.187-24.81.29C12.069 47.701 5.934 42.218 2 35.953c1.888 1.567 4.09 2.82 6.45 3.916 9.43 4.401 18.859 4.1 25.494.011-9.439-7.205-17.472-16.615-23.449-24.29-1.259-1.252-2.203-2.819-3.147-4.228 7.237 6.578 18.72 14.88 22.81 17.23-8.651-9.086-16.36-20.363-16.046-20.05 13.687 13.784 26.43 21.616 26.43 21.616.421.237.746.434 1.008.61.276-.699.518-1.424.721-2.176 2.203-7.988-.314-17.074-5.82-24.592 12.741 7.675 20.293 22.085 17.146 34.147-.082.325-.171.646-.267.961 6.291 7.833 4.672 16.269 3.885 14.703-3.413-6.65-9.732-4.617-12.944-3.268z" fill="url(#paint0_linear_295_8101)"/><defs><linearGradient id="paint0_linear_295_8101" x1="30.021" y1="4" x2="30.021" y2="54.003" gradientUnits="userSpaceOnUse"><stop stop-color="#F88A36"/><stop offset="1" stop-color="#FD2020"/></linearGradient></defs></svg>