<svg width="32" height="32" viewBox="0 0 32 32" fill="none" xmlns="http://www.w3.org/2000/svg"><path d="m.717 6.93 11.43 8.352H3.34l1.072 1.197 8.326 9.286H.718V6.93zM.193 5.657a.544.544 0 0 0-.193.41v19.863c0 .304.247.551.552.551h13.793L4.946 16h9.399L.193 5.658z" fill="#41479B"/><path d="m.717 6.93 11.43 8.353H3.34l1.073 1.196 8.325 9.286H.719V6.93z" fill="#FF4B55"/><path d="m4.209 18.525.441.911.839-.568a.053.053 0 0 1 .083.048l-.073 1.01 1.01-.073a.054.054 0 0 1 .048.083l-.569.838.912.442c.04.02.04.077 0 .096l-.912.442.569.838a.054.054 0 0 1-.048.083l-1.01-.073.073 1.01a.053.053 0 0 1-.083.048l-.839-.568-.441.911a.054.054 0 0 1-.096 0l-.442-.911-.838.568a.053.053 0 0 1-.084-.048l.073-1.01-1.01.073a.054.054 0 0 1-.048-.083l.569-.838-.912-.442a.054.054 0 0 1 0-.096l.912-.442-.569-.838a.054.054 0 0 1 .048-.083l1.01.073-.073-1.01a.053.053 0 0 1 .083-.048l.839.568.441-.911c.02-.04.077-.04.097 0zM5.356 13.254l-.384-.262.338-.354-.481-.088.164-.46-.475.115-.037-.488-.387.3-.232-.431-.232.43-.387-.298-.037.487-.475-.115.164.46-.481.088.338.354-.384.262a3.552 3.552 0 0 1-1.244-.964 2.78 2.78 0 0 0 2.738 2.308A2.78 2.78 0 0 0 6.6 12.289a3.55 3.55 0 0 1-1.244.965z" fill="#F5F5F5"/></svg>